{"title":"The Son Of Bigfoot 2017 1080p BluRay 6CH (5.1) AAC x264 - EiE","magnet":"magnet:?xt=urn:btih:e9ad86004dae80f9b0cbeb25be0fc7fcd7ff016e&dn=The+Son+Of+Bigfoot+2017+1080p+BluRay+6CH+%285.1%29+AAC+x264+-+EiE&tr=udp%3A%2F%2Ftracker.leechers-paradise.org%3A6969&tr=udp%3A%2F%2Fzer0day.ch%3A1337&tr=udp%3A%2F%2Fopen.demonii.com%3A1337&tr=udp%3A%2F%2Ftracker.coppersurfer.tk%3A6969&tr=udp%3A%2F%2Fexodus.desync.com%3A6969","uploader":"samcode4u","categoryP":"video","categoryS":"hd___movies","size":"1502702559","seeders":"0","leechers":"0","description":"The Son Of Bigfoot 2017 1080p BluRay 6CH (5.1) AAC x264 - EiE\r\n <a href=\"\nhttps://www.imdb.com/title/tt5715410/\" rel=\"nofollow\" target=\"_NEW\">\nhttps://www.imdb.com/title/tt5715410/</a>\r\n\r\n\r\nScreenshots:\r\n\r\n <a href=\"\nhttps://lensdump.com/i/ptnOT\" rel=\"nofollow\" target=\"_NEW\">\nhttps://lensdump.com/i/ptnOT</a>\r\n <a href=\"\nhttps://lensdump.com/i/ptvUb\" rel=\"nofollow\" target=\"_NEW\">\nhttps://lensdump.com/i/ptvUb</a>\r\n <a href=\"\nhttps://lensdump.com/i/ptMZ7\" rel=\"nofollow\" target=\"_NEW\">\nhttps://lensdump.com/i/ptMZ7</a>\r\n <a href=\"\nhttps://lensdump.com/i/ptYsr\" rel=\"nofollow\" target=\"_NEW\">\nhttps://lensdump.com/i/ptYsr</a>\r\n\r\n\r\nVideo\r\nID                                       : 1\r\nFormat                                   : AVC\r\nFormat/Info                              : Advanced Video Codec\r\nFormat settings, CABAC                   : Yes\r\nFormat settings, ReFrames                : 4 frames\r\nCodec ID                                 : avc1\r\nCodec ID/Info                            : Advanced Video Coding\r\nDuration                                 : 1h 32mn\r\nBit rate                                 : 1 891 Kbps\r\nMaximum bit rate                         : 10.6 Mbps\r\nWidth                                    : 1 920 pixels\r\nHeight                                   : 1 080 pixels\r\nDisplay aspect ratio                     : 16:9\r\nFrame rate mode                          : Constant\r\nFrame rate                               : 23.976 fps\r\nColor space                              : YUV\r\nChroma subsampling                       : 4:2:0\r\nBit depth                                : 8 bits\r\nScan type                                : Progressive\r\nBits/(Pixel*Frame)                       : 0.038\r\nStream size                              : 1.22 GiB (87%)\r\n\r\nAudio\r\nID                                       : 2\r\nFormat                                   : AAC\r\nFormat/Info                              : Advanced Audio Codec\r\nFormat profile                           : LC\r\nCodec ID                                 : 40\r\nDuration                                 : 1h 32mn\r\nBit rate mode                            : Variable\r\nBit rate                                 : 278 Kbps\r\nMaximum bit rate                         : 332 Kbps\r\nChannel(s)                               : 6 channels\r\nChannel positions                        : Front: L C R, Side: L R, LFE\r\nSampling rate                            : 48.0 KHz\r\nCompression mode                         : Lossy\r\nStream size                              : 183 MiB (13%)\r\nLanguage                                 : English","last_updated":"2017-12-21T12:02:17.314Z","parsed":{"xt":"urn:btih:e9ad86004dae80f9b0cbeb25be0fc7fcd7ff016e","dn":"The Son Of Bigfoot 2017 1080p BluRay 6CH (5.1) AAC x264 - EiE","tr":["udp://exodus.desync.com:6969","udp://open.demonii.com:1337","udp://tracker.coppersurfer.tk:6969","udp://tracker.leechers-paradise.org:6969","udp://zer0day.ch:1337"],"infoHash":"e9ad86004dae80f9b0cbeb25be0fc7fcd7ff016e","infoHashBuffer":{"type":"Buffer","data":[233,173,134,0,77,174,128,249,176,203,235,37,190,15,199,252,215,255,1,110]},"name":"The Son Of Bigfoot 2017 1080p BluRay 6CH (5.1) AAC x264 - EiE","announce":["udp://exodus.desync.com:6969","udp://open.demonii.com:1337","udp://tracker.coppersurfer.tk:6969","udp://tracker.leechers-paradise.org:6969","udp://zer0day.ch:1337"],"urlList":[]}}